# AST/ASF file generated using VICON BodyLanguage
# -----------------------------------------------
:version 1.10
:name VICON
:units
  mass 1.0
  length 0.45
  angle deg
:documentation
   .ast/.asf automatically generated from VICON data using
   VICON BodyBuilder and BodyLanguage model FoxedUp or BRILLIANT.MOD
:root
   order TX TY TZ RX RY RZ
   axis XYZ
   position 0 0 0  
   orientation 0 0 0 
:bonedata
  begin
     id 1 
     name lhipjoint
     direction 0.646657 -0.683706 0.338203 
     length 2.4948 
     axis 0 0 0  XYZ
  end
  begin
     id 2 
     name lfemur
     direction 0.34202 -0.939693 0  
     length 6.79491  
     axis 0 0 20  XYZ
    dof rx ry rz
    limits (-160.0 20.0)
           (-70.0 70.0)
           (-60.0 70.0)
  end
  begin
     id 3 
     name ltibia
     direction 0.34202 -0.939693 0   
     length 7.56807   
     axis 0 0 20   XYZ
    dof rx
    limits (-10.0 170.0)
  end
  begin
     id 4 
     name lfoot
     direction 0.0679796 -0.186772 0.980048   
     length 2.53018   
     axis -90 7.62852e-016 20   XYZ
    dof rx rz
    limits (-45.0 90.0)
           (-70.0 20.0)
  end
  begin
     id 5 
     name ltoes
     direction 1.53625e-011 -4.21881e-011 1   
     length 1.26912   
     axis -90 7.62852e-016 20   XYZ
    dof rx
    limits (-90.0 20.0)
  end
  begin
     id 6 
     name rhipjoint
     direction -0.618868 -0.704065 0.348274   
     length 2.42265  
     axis 0 0 0  XYZ 
  end
  begin
     id 7 
     name rfemur
     direction -0.34202 -0.939693 0   
     length 6.73814   
     axis 0 0 -20   XYZ
    dof rx ry rz
    limits (-160.0 20.0)
           (-70.0 70.0)
           (-70.0 60.0)
  end
  begin
     id 8 
     name rtibia
     direction -0.34202 -0.939693 0   
     length 7.66799   
     axis 0 0 -20   XYZ
    dof rx
    limits (-10.0 170.0)
 end
 begin
     id 9 
     name rfoot
     direction -0.0727352 -0.199838 0.977125   
     length 2.57224  
     axis -90 -7.62852e-016 -20   XYZ
    dof rx rz
    limits (-45.0 90.0)
           (-20.0 70.0)
  end
  begin
     id 10 
     name rtoes
     direction -1.53501e-011 -4.21858e-011 1   
     length 1.28858   
     axis -90 -7.62852e-016 -20   XYZ
    dof rx
    limits (-90.0 20.0)
  end
  begin
     id 11 
     name lowerback
     direction -0.0172471 0.995767 -0.0902851   
     length 2.20206   
     axis 0 0 0   XYZ
    dof rx ry rz
    limits (-20.0 45.0)
           (-30.0 30.0)
           (-30.0 30.0)
  end
  begin
     id 12 
     name upperback
     direction -0.000110737 0.999714 0.0239043   
     length 2.19523   
     axis 0 0 0   XYZ
    dof rx ry rz
    limits (-20.0 45.0)
           (-30.0 30.0)
           (-30.0 30.0)
  end
  begin
     id 13 
     name thorax
     direction 0.00704869 0.997783 0.0661741   
     length 2.21977   
     axis 0 0 0   XYZ
    dof rx ry rz
    limits (-20.0 45.0)
           (-30.0 30.0)
           (-30.0 30.0)
  end
  begin
     id 14 
     name lowerneck
     direction -0.00407501 0.995527 0.0943846   
     length 1.83142   
     axis 0 0 0   XYZ
    dof rx ry rz
    limits (-20.0 45.0)
           (-30.0 30.0)
           (-30.0 30.0)
  end
  begin
     id 15 
     name upperneck
     direction 0.0640586 0.986486 -0.150807   
     length 1.84616   
     axis 0 0 0   XYZ
    dof rx ry rz
    limits (-20.0 45.0)
           (-30.0 30.0)
           (-30.0 30.0)
  end
  begin
     id 16
     name head
     direction 0.0188017 0.99791 -0.0618239  
     length 1.85932  
     axis 0 0 0   XYZ
    dof rx ry rz
    limits (-20.0 45.0)
           (-30.0 30.0)
           (-30.0 30.0)
  end
  begin
     id 17 
     name lclavicle
     direction 0.976074 0.206905 0.066852  
     length 3.81043  
     axis 0 0 0   XYZ
    dof ry rz
    limits (-20.0 10.0)
           (0.0 20.0)
  end
  begin
     id 18 
     name lhumerus
     direction 1 -4.48971e-011 1.86916e-027   
     length 5.37587   
     axis 180 -30 -90   XYZ
    dof rx ry rz
    limits (-60.0 90.0)
           (-90.0 90.0)
           (-90.0 90.0)
  end
  begin
     id 19
     name lradius
     direction 1 -4.48968e-011 1.69187e-027   
     length 3.35977   
     axis 180 -30 -90   XYZ
    dof rx
    limits (-10.0 170.0)
  end
  begin
     id 20
     name lwrist
     direction 1 -4.48968e-011 5.8978e-027   
     length 1.67988   
     axis -3.27506e-015 90 90   XYZ
    dof ry
    limits (-180.0 0.0)
 end
  begin
     id 21 
     name lhand
     direction 1 -4.49028e-011 1.18071e-026   
     length 0.561859   
     axis -7.52654e-015 90 90   XYZ
    dof rx rz
    limits (-90.0 90.0)
           (-45.0 45.0)
  end
  begin
     id 22 
     name lfingers
     direction 1 -4.48927e-011 2.35758e-026   
     length 0.452985   
     axis -1.50534e-014 90 90   XYZ
    dof rx
    limits (0.0 90.0)
  end
  begin
     id 23
     name lthumb
     direction 0.707107 -6.34898e-011 0.707107   
     length 0.650399   
     axis -90 45 5.69224e-014   XYZ
    dof rx rz
    limits (-45.0 45.0)
           (-45.0 45.0)
  end
  begin
     id 24 
     name rclavicle
     direction -0.988403 0.151789 0.00439714   
     length 3.6942  
     axis 0 0 0   XYZ 
    dof ry rz
    limits (-10.0 20.0)
           (-20.0 0.0)
  end
  begin
     id 25 
     name rhumerus
     direction -1 -4.48978e-011 1.62495e-027  
     length 5.22819   
     axis 180 30 90   XYZ
    dof rx ry rz
    limits (-90.0 60.0)
           (-90.0 90.0)
           (-90.0 90.0)
  end
  begin
     id 26 
     name rradius
     direction -1 -4.48961e-011 3.47796e-027   
     length 3.40764   
     axis 180 30 90   XYZ
    dof rx
    limits (-10.0 170.0)
  end
  begin
     id 27 
     name rwrist
     direction -1 -4.48949e-011 5.89602e-027   
     length 1.70382   
     axis -3.27506e-015 -90 -90   XYZ
    dof ry
    limits (-180.0 0.0)
  end
  begin
     id 28
     name rhand
     direction -1 -4.48977e-011 1.17973e-026   
     length 0.583255   
     axis -7.52654e-015 -90 -90   XYZ
    dof rx rz
    limits (-90.0 90.0)
           (-45.0 45.0)
  end
  begin
     id 29
     name rfingers
     direction -1 -4.49099e-011 2.36408e-026   
     length 0.470235   
     axis -1.50534e-014 -90 -90   XYZ
    dof rx
    limits (0.0 90.0)
  end
  begin
     id 30
     name rthumb
     direction -0.707107 -6.35011e-011 0.707107   
     length 0.675167   
     axis -90 -45 -5.69224e-014   XYZ
    dof rx rz
    limits (-45.0 45.0)
           (-45.0 45.0)
  end
:hierarchy
  begin
    root lhipjoint rhipjoint lowerback
    lhipjoint lfemur
    lfemur ltibia
    ltibia lfoot
    lfoot ltoes
    rhipjoint rfemur
    rfemur rtibia
    rtibia rfoot
    rfoot rtoes
    lowerback upperback
    upperback thorax
    thorax lowerneck lclavicle rclavicle
    lowerneck upperneck
    upperneck head
    lclavicle lhumerus
    lhumerus lradius
    lradius lwrist
    lwrist lhand lthumb
    lhand lfingers
    rclavicle rhumerus
    rhumerus rradius
    rradius rwrist
    rwrist rhand rthumb
    rhand rfingers
  end

#!OML:ASF G:\JayActor3\Patient Classification 1\Patient 1\Session 2\male.ASF
:FULLY-SPECIFIED
:DEGREES
513
root 28.3805 17.0114 -6.76028 18.2498 -81.0757 -26.4905
lowerback 8.81034 -1.57983 2.97261
upperback -0.439071 -1.77178 0.604584
thorax -5.47638 -0.954567 -0.801992
lowerneck -5.02454 -2.78784 -3.75484
upperneck -4.00906 -3.53249 9.80033
head -0.129359 -1.78117 3.78841
rclavicle 5.36222e-014 -1.66979e-014
rhumerus -52.0251 16.6054 -89.2087
rradius 68.165
rwrist 0.395523
rhand -30.2414 16.9088
rfingers 7.12502
rthumb -3.55059 -13.0413
lclavicle 5.36222e-014 -1.66979e-014
lhumerus -34.2532 -5.14495 82.2756
lradius 115.832
lwrist 75.3637
lhand -19.2035 7.43611
lfingers 7.12502
lthumb 7.10871 37.2967
rfemur -1.50214 3.4384 30.1926
rtibia 22.2633
rfoot -14.4623 -10.1586
rtoes 22.4221
lfemur -41.5295 21.1894 -8.82516
ltibia 116.74
lfoot 0.498992 -7.193
ltoes -17.9834
514
root 28.2339 17.0446 -6.76038 18.6537 -81.1387 -27.0619
lowerback 9.04357 -1.52419 2.99745
upperback -0.388482 -1.68725 0.620567
thorax -5.552 -0.913982 -0.80569
lowerneck -5.03566 -2.82831 -3.78197
upperneck -4.01729 -3.58482 9.82793
head -0.124963 -1.80697 3.80203
rclavicle -3.36692e-014 -1.59028e-015
rhumerus -51.8597 16.6507 -89.1273
rradius 68.0267
rwrist 0.426805
rhand -30.1922 16.8377
rfingers 7.12502
rthumb -3.50305 -13.1133
lclavicle -3.36692e-014 -1.59028e-015
lhumerus -34.1922 -4.99481 82.1709
lradius 115.74
lwrist 75.7987
lhand -19.4093 7.48868
lfingers 7.12502
lthumb 6.91004 37.3559
rfemur 0.0998681 3.56642 30.4458
rtibia 20.6065
rfoot -14.0768 -10.5795
rtoes 22.174
lfemur -44.905 23.3006 -8.20499
ltibia 121.107
lfoot -1.23436 -8.79228
ltoes -19.4073
515
root 28.0837 17.0742 -6.75858 19.2161 -81.245 -27.7648
lowerback 9.20286 -1.4509 3.03988
upperback -0.347226 -1.57996 0.630701
thorax -5.59539 -0.862541 -0.830725
lowerneck -4.99593 -2.86823 -3.81359
upperneck -4.0524 -3.6348 9.84662
head -0.138383 -1.83319 3.81452
rclavicle -1.50082e-014 6.75868e-015
rhumerus -51.7736 16.6774 -89.0766
rradius 67.9911
rwrist 0.425667
rhand -30.133 16.7637
rfingers 7.12502
rthumb -3.44592 -13.1882
lclavicle -1.50082e-014 6.75868e-015
lhumerus -34.1617 -4.89387 82.0807
lradius 115.666
lwrist 76.094
lhand -19.5144 7.56638
lfingers 7.12502
lthumb 6.80859 37.4369
rfemur 1.73843 3.7527 30.7101
rtibia 18.8794
rfoot -13.6904 -11.0188
rtoes 21.8876
lfemur -48.0518 25.8911 -7.36264
ltibia 125.27
lfoot -2.94306 -10.6802
ltoes -20.4799
516
root 27.9301 17.0997 -6.75456 19.9195 -81.3563 -28.5834
lowerback 9.28961 -1.37398 3.11408
upperback -0.313757 -1.46694 0.637677
thorax -5.60656 -0.808969 -0.879635
lowerneck -4.92039 -2.90461 -3.84583
upperneck -4.09795 -3.67956 9.85757
head -0.161978 -1.85772 3.82524
rclavicle 3.67752e-015 -1.19271e-015
rhumerus -51.7514 16.6953 -89.0554
rradius 68.0402
rwrist 0.391423
rhand -30.069 16.7017
rfingers 7.12502
rthumb -3.38412 -13.2512
lclavicle 3.67752e-015 -1.19271e-015
lhumerus -34.1481 -4.84375 82.0142
lradius 115.612
lwrist 76.2057
lhand -19.5218 7.65918
lfingers 7.12502
lthumb 6.80145 37.5299
rfemur 3.42293 3.96096 30.9914
rtibia 17.0649
rfoot -13.3099 -11.4687
rtoes 21.5928
lfemur -50.9152 29.0565 -6.20185
ltibia 129.232
lfoot -4.7173 -12.8544
ltoes -21.4453
517
root 27.7735 17.1208 -6.74848 20.6842 -81.443 -29.4412
lowerback 9.31098 -1.30562 3.21715
upperback -0.286709 -1.36454 0.642522
thorax -5.58852 -0.761176 -0.946958
lowerneck -4.83294 -2.93347 -3.87644
upperneck -4.1265 -3.71532 9.86289
head -0.183035 -1.87751 3.83394
rclavicle 2.61402e-014 7.95139e-016
rhumerus -51.7737 16.7221 -89.0632
rradius 68.1416
rwrist 0.325564
rhand -30.0134 16.6633
rfingers 7.12502
rthumb -3.33041 -13.2904
lclavicle 2.61402e-014 7.95139e-016
lhumerus -34.1426 -4.83431 81.9737
lradius 115.577
lwrist 76.1594
lhand -19.4561 7.75584
lfingers 7.12502
lthumb 6.86485 37.6245
rfemur 5.17297 4.15547 31.2844
rtibia 15.1228
rfoot -12.9154 -11.9211
rtoes 21.3141
lfemur -53.4171 32.8622 -4.62619
ltibia 132.979
lfoot -6.56065 -15.3124
ltoes -22.1968
518
root 27.6144 17.1381 -6.74119 21.4411 -81.4773 -30.2789
lowerback 9.28327 -1.25535 3.34477
upperback -0.2674 -1.28539 0.645775
thorax -5.55221 -0.725322 -1.02729
lowerneck -4.75066 -2.95731 -3.90051
upperneck -4.10584 -3.7474 9.868
head -0.187777 -1.89414 3.84075
rclavicle 1.33558e-014 -1.78906e-015
rhumerus -51.8353 16.7581 -89.1001
rradius 68.2696
rwrist 0.238173
rhand -29.9698 16.6267
rfingers 7.12502
rthumb -3.28831 -13.3277
lclavicle 1.33558e-014 -1.78906e-015
lhumerus -34.1456 -4.86188 81.9582
lradius 115.556
lwrist 76.0171
lhand -19.3576 7.84561
lfingers 7.12502
lthumb 6.96 37.7112
rfemur 7.03534 4.30446 31.5919
rtibia 12.9676
rfoot -12.4536 -12.3752
rtoes 21.0629
lfemur -55.4442 37.3316 -2.51089
ltibia 136.486
lfoot -8.53695 -18.0422
ltoes -22.7828
519
root 27.4526 17.1522 -6.73386 22.1504 -81.4493 -31.0697
lowerback 9.22151 -1.22803 3.48416
upperback -0.253746 -1.23685 0.65002
thorax -5.50397 -0.704663 -1.10936
lowerneck -4.69256 -2.97601 -3.92496
upperneck -4.01351 -3.77653 9.8867
head -0.16512 -1.90702 3.85127
rclavicle -6.13748e-015 -3.97569e-016
rhumerus -51.9259 16.8041 -89.1656
rradius 68.391
rwrist 0.147334
rhand -29.9478 16.6238
rfingers 7.12502
rthumb -3.26707 -13.3309
lclavicle -6.13748e-015 -3.97569e-016
lhumerus -34.156 -4.9106 81.96
lradius 115.544
lwrist 75.8601
lhand -19.2622 7.91157
lfingers 7.12502
lthumb 7.05209 37.7741
rfemur 9.1047 4.39425 31.9177
rtibia 10.4321
rfoot -11.8331 -12.841
rtoes 20.8665
lfemur -56.8336 42.3883 0.277494
ltibia 139.714
lfoot -10.7247 -20.9513
ltoes -23.2533
520
root 27.2877 17.1641 -6.7273 22.8489 -81.3645 -31.8592
lowerback 9.14425 -1.22205 3.6328
upperback -0.251457 -1.21609 0.658039
thorax -5.46023 -0.697962 -1.18882
lowerneck -4.65985 -2.99261 -3.94936
upperneck -3.83779 -3.80759 9.91894
head -0.110706 -1.91828 3.86515
rclavicle -5.46658e-015 9.93923e-016
rhumerus -52.0492 16.8535 -89.2589
rradius 68.4837
rwrist 0.0674637
rhand -29.9164 16.634
rfingers 7.12502
rthumb -3.23674 -13.3212
lclavicle -5.46658e-015 9.93923e-016
lhumerus -34.1853 -4.96663 81.9748
lradius 115.536
lwrist 75.749
lhand -19.2019 7.94515
lfingers 7.12502
lthumb 7.11024 37.8057
rfemur 11.6098 3.96728 32.1737
rtibia 7.07556
rfoot -10.7172 -12.9034
rtoes 20.7577
lfemur -57.4151 47.7951 3.83186
ltibia 142.611
lfoot -13.1568 -23.8836
ltoes -23.572
521
root 27.1193 17.1745 -6.72169 23.5622 -81.2401 -32.6702
lowerback 9.0518 -1.23151 3.78685
upperback -0.263771 -1.21561 0.669868
thorax -5.42427 -0.701524 -1.26455
lowerneck -4.65433 -3.00915 -3.98167
upperneck -3.58007 -3.84309 9.97045
head -0.0241199 -1.9291 3.88603
rclavicle -1.38901e-014 1.80894e-014
rhumerus -52.2075 16.896 -89.3779
rradius 68.5399
rwrist 0.0090971
rhand -29.8813 16.6529
rfingers 7.12502
rthumb -3.20282 -13.3028
lclavicle -1.38901e-014 1.80894e-014
lhumerus -34.2402 -5.01373 81.996
lradius 115.536
lwrist 75.711
lhand -19.1802 7.95829
lfingers 7.12502
lthumb 7.1312 37.8181
rfemur 16.0916 3.50915 32.3779
rtibia -4.53229e-014
rfoot -7.8376 -13.286
rtoes 20.7029
lfemur -57.1521 53.0996 8.02003
ltibia 145.111
lfoot -15.7428 -26.5461
ltoes -23.6927
522
root 26.948 17.1839 -6.71672 24.3929 -81.0988 -33.5934
lowerback 8.9418 -1.2485 3.95618
upperback -0.295636 -1.2238 0.686841
thorax -5.39969 -0.710034 -1.34234
lowerneck -4.6628 -3.02645 -4.01838
upperneck -3.26915 -3.88298 10.029
head 0.0827461 -1.94046 3.9096
rclavicle 1.80646e-014 -3.77691e-015
rhumerus -52.3983 16.9245 -89.518
rradius 68.5605
rwrist -0.0223289
rhand -29.8431 16.6733
rfingers 7.12502
rthumb -3.1659 -13.2829
lclavicle 1.80646e-014 -3.77691e-015
lhumerus -34.3228 -5.03587 82.0188
lradius 115.543
lwrist 75.7394
lhand -19.193 7.95231
lfingers 7.12502
lthumb 7.11886 37.8126
rfemur 16.7912 3.04608 32.6288
rtibia 4.77083e-015
rfoot -8.24114 -12.9452
rtoes 20.6879
lfemur -56.3572 57.763 12.3175
ltibia 147.143
lfoot -18.267 -28.6364
ltoes -23.6735
523
root 26.7747 17.1925 -6.71167 25.3818 -80.9606 -34.6582
lowerback 8.81261 -1.2666 4.14818
upperback -0.345818 -1.23164 0.707742
thorax -5.38402 -0.719297 -1.42889
lowerneck -4.68165 -3.04571 -4.05585
upperneck -2.93379 -3.92739 10.082
head 0.199668 -1.95324 3.93114
rclavicle 1.09829e-014 -7.55382e-015
rhumerus -52.6079 16.9337 -89.6708
rradius 68.5537
rwrist -0.0289919
rhand -29.7985 16.6819
rfingers 7.12502
rthumb -3.12282 -13.2749
lclavicle 1.09829e-014 -7.55382e-015
lhumerus -34.4243 -5.02163 82.0379
lradius 115.559
lwrist 75.8113
lhand -19.2214 7.93488
lfingers 7.12502
lthumb 7.09142 37.7961
rfemur 17.463 2.60347 32.8896
rtibia -1.59028e-015
rfoot -8.59962 -12.6008
rtoes 20.6964
lfemur -55.9383 61.2765 15.5592
ltibia 148.627
lfoot -20.3511 -29.9251
ltoes -23.5454
524
root 26.6009 17.2 -6.70583 26.5558 -80.8368 -35.885
lowerback 8.66722 -1.28262 4.37305
upperback -0.410266 -1.23415 0.730616
thorax -5.37467 -0.727175 -1.53262
lowerneck -4.70072 -3.06555 -4.08839
upperneck -2.61374 -3.97227 10.1197
head 0.311375 -1.96672 3.94671
rclavicle -6.55989e-015 -1.19271e-015
rhumerus -52.8163 16.92 -89.8301
rradius 68.5244
rwrist -0.010059
rhand -29.7526 16.6761
rfingers 7.12502
rthumb -3.0785 -13.2814
lclavicle -6.55989e-015 -1.19271e-015
lhumerus -34.5348 -4.96661 82.0457
lradius 115.585
lwrist 75.895
lhand -19.2553 7.90886
lfingers 7.12502
lthumb 7.05875 37.7712
rfemur 18.0975 2.19564 33.161
rtibia -1.90833e-014
rfoot -8.90678 -12.2729
rtoes 20.7008
lfemur -57.1748 63.3005 16.2539
ltibia 149.496
lfoot -21.6148 -30.3046
ltoes -23.3578
525
root 26.428 17.2061 -6.6988 27.8312 -80.727 -37.1866
lowerback 8.5118 -1.29832 4.62456
upperback -0.483329 -1.23447 0.753541
thorax -5.36927 -0.735029 -1.65156
lowerneck -4.71436 -3.08328 -4.11937
upperneck -2.33953 -4.01175 10.1419
head 0.406608 -1.97886 3.95732
rclavicle 1.53064e-014 1.2921e-014
rhumerus -53.0017 16.8908 -89.9904
rradius 68.4681
rwrist 0.0245497
rhand -29.7078 16.6614
rfingers 7.12502
rthumb -3.03525 -13.2967
lclavicle 1.53064e-014 1.2921e-014
lhumerus -34.6428 -4.86814 82.0403
lradius 115.623
lwrist 75.9663
lhand -19.2868 7.88296
lfingers 7.12502
lthumb 7.0283 37.7463
rfemur 18.6871 1.81666 33.4371
rtibia 1.11319e-014
rfoot -9.17538 -12.003
rtoes 20.7322
lfemur -60.9731 63.4998 13.3615
ltibia 149.699
lfoot -21.8055 -29.7496
ltoes -23.1675
526
root 26.2574 17.2105 -6.69063 29.1232 -80.6213 -38.4847
lowerback 8.36347 -1.31589 4.89696
upperback -0.559627 -1.2355 0.776455
thorax -5.37188 -0.744204 -1.78188
lowerneck -4.72301 -3.10034 -4.14235
upperneck -2.12865 -4.04656 10.1401
head 0.479393 -1.99047 3.95865
rclavicle 2.93207e-015 -1.74931e-014
rhumerus -53.1528 16.8533 -90.1469
rradius 68.3837
rwrist 0.0639254
rhand -29.6657 16.6351
rfingers 7.12502
rthumb -2.99457 -13.3237
lclavicle 2.93207e-015 -1.74931e-014
lhumerus -34.7392 -4.73828 82.0245
lradius 115.668
lwrist 76.0162
lhand -19.3241 7.85602
lfingers 7.12502
lthumb 6.99234 37.7205
rfemur 19.2318 1.44831 33.7232
rtibia 1.27222e-014
rfoot -9.42344 -11.8451
rtoes 20.8215
lfemur -66.7509 61.4854 7.48323
ltibia 149.218
lfoot -20.9627 -28.2578
ltoes -23.14
